#!OML:ASF H:\IndianDance\Patient Classification 1\Patient 1\Session 1\dancer.ASF
:FULLY-SPECIFIED
:DEGREES
2800
root 5.98774 14.3392 -4.3534 -175.978 -1.87321 -178.752
lowerback 7.76894 4.78952 -2.09456
upperback -6.46201 6.16906 2.10284
thorax -11.8232 3.12541 2.35065
lowerneck -15.025 -4.54689 -7.23889
upperneck 17.7048 -5.60778 3.9232
head 8.29378 -2.85435 1.83156
rclavicle 2.9271e-014 3.97569e-015
rhumerus -9.14203 75.7335 -57.2757
rradius 94.297
rwrist -6.53681
rhand -46.724 52.5474
rfingers 7.12502
rthumb -19.442 23.4994
lclavicle 2.9271e-014 3.97569e-015
lhumerus 52.4588 28.7821 0.532965
lradius 69.0081
lwrist -20.1936
lhand -62.036 -261.647
lfingers 7.12502
lthumb -34.0879 -71.5889
rfemur -47.1804 -16.0195 16.2326
rtibia 72.7763
rfoot -11.722 -11.3069
rtoes 4.88672
lfemur -28.4838 17.7587 -24.9602
ltibia 58.6294
lfoot -31.2567 10.1813
ltoes 2.98619
2801
root 5.96533 14.3648 -4.3674 -176.029 -1.8366 -178.637
lowerback 7.8281 4.75768 -2.05101
upperback -6.4787 6.13358 2.144
thorax -11.8757 3.106 2.37305
lowerneck -14.7756 -4.63571 -7.22583
upperneck 17.3045 -5.71736 3.88533
head 8.1205 -2.90487 1.8098
rclavicle 1.92821e-014 1.03368e-014
rhumerus -6.34328 74.4921 -54.9962
rradius 94.5675
rwrist -9.58299
rhand -46.2724 50.1214
rfingers 7.12502
rthumb -19.0077 21.0301
lclavicle 1.92821e-014 1.03368e-014
lhumerus 52.8418 28.9559 0.880199
lradius 68.9977
lwrist -20.0772
lhand -61.9822 -261.669
lfingers 7.12502
lthumb -34.0368 -71.555
rfemur -47.9142 -17.0255 16.6091
rtibia 75.2832
rfoot -11.7509 -11.0995
rtoes 5.55777
lfemur -28.1827 18.2353 -24.8925
ltibia 58.2025
lfoot -31.0878 9.85899
ltoes 3.24896
2802
root 5.94412 14.394 -4.38208 -176.092 -1.73821 -178.529
lowerback 7.89208 4.73781 -2.01944
upperback -6.49712 6.11235 2.17975
thorax -11.935 3.09413 2.39313
lowerneck -14.5526 -4.71438 -7.20017
upperneck 16.9659 -5.82023 3.85337
head 7.97254 -2.95213 1.78857
rclavicle -1.24737e-014 -3.97569e-014
rhumerus -3.49478 73.0881 -52.7225
rradius 94.7477
rwrist -12.8024
rhand -45.7403 47.3249
rfingers 7.12502
rthumb -18.4959 18.1842
lclavicle -1.24737e-014 -3.97569e-014
lhumerus 53.2729 29.1057 1.23864
lradius 68.9242
lwrist -19.9432
lhand -61.9282 -261.727
lfingers 7.12502
lthumb -33.9855 -71.4859
rfemur -48.7244 -18.0209 16.9926
rtibia 77.9617
rfoot -11.8733 -11.0596
rtoes 6.53769
lfemur -27.8147 18.7416 -24.82
ltibia 57.6828
lfoot -30.8881 9.54646
ltoes 3.54159
2803
root 5.92431 14.4271 -4.3977 -176.16 -1.57846 -178.451
lowerback 7.95985 4.72789 -2.01911
upperback -6.51991 6.09958 2.20405
thorax -12.0046 3.08841 2.41604
lowerneck -14.3378 -4.78239 -7.18265
upperneck 16.6755 -5.91483 3.8447
head 7.843 -2.99514 1.77739
rclavicle 2.25124e-014 -5.1684e-015
rhumerus -0.667919 71.5328 -50.5442
rradius 94.8017
rwrist -16.1626
rhand -45.094 44.1449
rfingers 7.12502
rthumb -17.8741 14.9463
lclavicle 2.25124e-014 -5.1684e-015
lhumerus 53.7214 29.2312 1.5922
lradius 68.812
lwrist -19.8026
lhand -61.8756 -261.801
lfingers 7.12502
lthumb -33.9355 -71.4009
rfemur -49.6035 -18.9947 17.3558
rtibia 80.7772
rfoot -12.0387 -11.1679
rtoes 7.77198
lfemur -27.379 19.2603 -24.7658
ltibia 57.0652
lfoot -30.6561 9.24939
ltoes 3.86011
2804
root 5.9058 14.4645 -4.41457 -176.226 -1.35865 -178.423
lowerback 8.0216 4.72848 -2.06439
upperback -6.54835 6.09344 2.20948
thorax -12.0808 3.08893 2.44267
lowerneck -14.154 -4.83793 -7.15446
upperneck 16.4475 -5.99682 3.8363
head 7.73882 -3.03249 1.76541
rclavicle -9.69572e-014 -8.74653e-015
rhumerus 2.07211 69.8257 -48.5468
rradius 94.6904
rwrist -19.6144
rhand -44.2831 40.5695
rfingers 7.12502
rthumb -17.0937 11.3015
lclavicle -9.69572e-014 -8.74653e-015
lhumerus 54.1695 29.3338 1.93058
lradius 68.6818
lwrist -19.6597
lhand -61.8231 -261.908
lfingers 7.12502
lthumb -33.8857 -71.2833
rfemur -50.5429 -19.9497 17.6798
rtibia 83.6806
rfoot -12.188 -11.3837
rtoes 9.19085
lfemur -26.8745 19.7782 -24.7542
ltibia 56.3355
lfoot -30.3796 8.99125
ltoes 4.12476
2805
root 5.88802 14.5071 -4.43292 -176.283 -1.09032 -178.45
lowerback 8.07285 4.73849 -2.15198
upperback -6.58428 6.09248 2.19534
thorax -12.1624 3.09465 2.47096
lowerneck -13.9924 -4.88249 -7.12524
upperneck 16.2716 -6.0651 3.8234
head 7.65499 -3.06456 1.75284
rclavicle 2.30093e-014 3.85642e-014
rhumerus 4.67734 67.9733 -46.7838
rradius 94.3802
rwrist -23.1096
rhand -43.278 36.63
rfingers 7.12502
rthumb -16.126 7.2809
lclavicle 2.30093e-014 3.85642e-014
lhumerus 54.6153 29.4089 2.2626
lradius 68.539
lwrist -19.5394
lhand -61.7794 -261.99
lfingers 7.12502
lthumb -33.8442 -71.1915
rfemur -51.5274 -20.9027 17.9581
rtibia 86.6155
rfoot -12.2779 -11.6525
rtoes 10.727
lfemur -26.2978 20.2624 -24.7973
ltibia 55.4759
lfoot -30.0433 8.78262
ltoes 4.33984
2806
root 5.87076 14.5562 -4.45313 -176.33 -0.778314 -178.525
lowerback 8.1096 4.75775 -2.27331
upperback -6.62785 6.09777 2.16807
thorax -12.247 3.10558 2.5032
lowerneck -13.8627 -4.91576 -7.08006
upperneck 16.1483 -6.11713 3.7835
head 7.59189 -3.09092 1.72987
rclavicle 1.635e-014 -1.59028e-015
rhumerus 7.12576 66 -45.2863
rradius 93.839
rwrist -26.6009
rhand -42.0493 32.3884
rfingers 7.12502
rthumb -14.9426 2.94744
lclavicle 1.635e-014 -1.59028e-015
lhumerus 55.0308 29.4585 2.57249
lradius 68.4069
lwrist -19.4315
lhand -61.7492 -262.027
lfingers 7.12502
lthumb -33.8155 -71.1488
rfemur -52.5338 -21.8554 18.2013
rtibia 89.5215
rfoot -12.2995 -11.9122
rtoes 12.3199
lfemur -25.6398 20.699 -24.8859
ltibia 54.4693
lfoot -29.6385 8.618
ltoes 4.55049
2807
root 5.85343 14.6125 -4.47545 -176.367 -0.429184 -178.629
lowerback 8.12541 4.7848 -2.39318
upperback -6.67639 6.1121 2.13075
thorax -12.3239 3.12006 2.5233
lowerneck -13.7626 -4.93818 -7.02462
upperneck 16.0633 -6.15169 3.71873
head 7.54448 -3.11075 1.69835
rclavicle -5.44173e-014 -1.78906e-014
rhumerus 9.41712 63.9207 -44.0828
rradius 93.0294
rwrist -30.0842
rhand -40.5647 27.9499
rfingers 7.12502
rthumb -13.5121 -1.59171
lclavicle -5.44173e-014 -1.78906e-014
lhumerus 55.3972 29.4918 2.85326
lradius 68.3016
lwrist -19.3308
lhand -61.7324 -261.999
lfingers 7.12502
lthumb -33.7995 -71.1727
rfemur -53.542 -22.8101 18.4322
rtibia 92.3403
rfoot -12.235 -12.1218
rtoes 13.8179
lfemur -24.8972 21.0733 -25.0027
ltibia 53.3046
lfoot -29.1538 8.50875
ltoes 4.71798
2808
root 5.83541 14.6768 -4.49985 -176.39 -0.0520535 -178.739
lowerback 8.1161 4.81485 -2.48022
upperback -6.72927 6.13352 2.09011
thorax -12.3866 3.13456 2.52204
lowerneck -13.6852 -4.9467 -6.94534
upperneck 16.0039 -6.16467 3.61582
head 7.50622 -3.12232 1.65241
rclavicle 8.62228e-014 3.93594e-014
rhumerus 11.5751 61.776 -43.1605
rradius 91.9359
rwrist -33.5752
rhand -38.7896 23.3878
rfingers 7.12502
rthumb -11.8008 -6.25974
lclavicle 8.62228e-014 3.93594e-014
lhumerus 55.7059 29.5121 3.09414
lradius 68.2136
lwrist -19.2417
lhand -61.7309 -261.91
lfingers 7.12502
lthumb -33.7981 -71.2612
rfemur -54.5349 -23.7647 18.6759
rtibia 95.0182
rfoot -12.0755 -12.237
rtoes 15.1787
lfemur -24.0729 21.3655 -25.1284
ltibia 51.9764
lfoot -28.5825 8.4559
ltoes 4.94431
2809
root 5.8163 14.7493 -4.52622 -176.396 0.345576 -178.833
lowerback 8.07375 4.44491 -2.55602
upperback -6.76806 6.25698 2.08865
thorax -12.4159 3.46031 2.48452
lowerneck -13.6379 -4.9436 -6.83734
upperneck 15.9709 -6.15821 3.46742
head 7.47842 -3.12682 1.58843
rclavicle -2.13197e-014 -3.93594e-014
rhumerus 13.6152 59.6008 -42.5159
rradius 90.5441
rwrist -37.1173
rhand -36.6685 18.8631
rfingers 7.12502
rthumb -9.75481 -10.891
lclavicle -2.13197e-014 -3.93594e-014
lhumerus 55.9557 29.5217 3.29092
lradius 68.138
lwrist -19.1651
lhand -61.7462 -261.765
lfingers 7.12502
lthumb -33.8126 -71.4098
rfemur -55.5017 -24.7066 18.9609
rtibia 97.5087
rfoot -11.7835 -12.2289
rtoes 16.323
lfemur -23.1749 21.562 -25.2424
ltibia 50.4855
lfoot -27.9119 8.46405
ltoes 5.16494
2810
root 5.79587 14.83 -4.5542 -176.381 0.7574 -178.895
lowerback 8.00988 4.46488 -2.48663
upperback -6.83119 6.29889 2.05316
thorax -12.4397 3.47623 2.40113
lowerneck -13.6168 -4.93817 -6.77827
upperneck 15.9647 -6.14206 3.34296
head 7.46595 -3.12739 1.54052
rclavicle -2.68359e-014 -5.1684e-015
rhumerus 15.5624 57.4364 -42.1337
rradius 88.8527
rwrist -40.7856
rhand -34.2684 14.5032
rfingers 7.12502
rthumb -7.43868 -15.346
lclavicle -2.68359e-014 -5.1684e-015
lhumerus 56.1513 29.5226 3.44582
lradius 68.0663
lwrist -19.0974
lhand -61.7751 -261.554
lfingers 7.12502
lthumb -33.84 -71.6271
rfemur -56.433 -25.6163 19.3017
rtibia 99.7725
rfoot -11.3316 -12.0451
rtoes 17.2895
lfemur -22.2125 21.6482 -25.3317
ltibia 48.8363
lfoot -27.1281 8.54942
ltoes 5.42478
2811
root 5.77416 14.9188 -4.58345 -176.34 1.17911 -178.916
lowerback 7.91811 4.47652 -2.31132
upperback -6.89996 6.34605 2.01785
thorax -12.4399 3.48643 2.26051
lowerneck -13.6106 -4.92763 -6.74854
upperneck 15.9695 -6.11552 3.23724
head 7.46079 -3.12295 1.50422
rclavicle 2.41026e-014 -9.14409e-015
rhumerus 17.4457 55.3124 -42.0014
rradius 86.8598
rwrist -44.634
rhand -31.6642 10.3936
rfingers 7.12502
rthumb -4.92448 -19.5292
lclavicle 2.41026e-014 -9.14409e-015
lhumerus 56.2784 29.5225 3.54276
lradius 68.0074
lwrist -19.0431
lhand -61.8015 -261.384
lfingers 7.12502
lthumb -33.8651 -71.8023
rfemur -57.3244 -26.4701 19.7095
rtibia 101.776
rfoot -10.6773 -11.6611
rtoes 18.043
lfemur -21.1973 21.6141 -25.3917
ltibia 47.0365
lfoot -26.2225 8.70443
ltoes 5.74459
2812
root 5.75141 15.0152 -4.61363 -176.27 1.60709 -178.904
lowerback 7.80208 4.48541 -2.05169
upperback -6.97757 6.40399 1.98778
thorax -12.4261 3.49597 2.07871
lowerneck -13.6295 -4.91968 -6.76562
upperneck 16.0036 -6.08572 3.14978
head 7.4716 -3.1182 1.48097
rclavicle -4.5969e-014 -1.63003e-014
rhumerus 19.2581 53.2551 -42.0916
rradius 84.5842
rwrist -48.6961
rhand -28.9929 6.59084
rfingers 7.12502
rthumb -2.34484 -23.376
lclavicle -4.5969e-014 -1.63003e-014
lhumerus 56.3674 29.5096 3.61936
lradius 67.9445
lwrist -19.0226
lhand -61.8263 -261.269
lfingers 7.12502
lthumb -33.8887 -71.9222
rfemur -58.1726 -27.2443 20.1804
rtibia 103.494
rfoot -9.78844 -11.0621
rtoes 18.5628
lfemur -20.1392 21.454 -25.4311
ltibia 45.0963
lfoot -25.1703 8.96036
ltoes 5.98463
2813
root 5.72822 15.119 -4.64448 -176.167 2.0377 -178.866
lowerback 7.66152 4.49022 -1.7257
upperback -7.06442 6.46776 1.96025
thorax -12.4001 3.50387 1.86395
lowerneck -13.6662 -4.91397 -6.81663
upperneck 16.053 -6.05426 3.07934
head 7.49225 -3.11315 1.46838
rclavicle -4.28381e-014 -3.4191e-014
rhumerus 21.013 51.2821 -42.3872
rradius 82.0362
rwrist -52.9348
rhand -26.3962 3.12557
rfingers 7.12502
rthumb 0.163099 -26.8541
lclavicle -4.28381e-014 -3.4191e-014
lhumerus 56.4144 29.4888 3.66987
lradius 67.8827
lwrist -19.0454
lhand -61.8549 -261.213
lfingers 7.12502
lthumb -33.9159 -71.9849
rfemur -58.975 -27.9132 20.7074
rtibia 104.901
rfoot -8.65883 -10.2425
rtoes 18.8993
lfemur -19.0501 21.1598 -25.4589
ltibia 43.0312
lfoot -23.959 9.3107
ltoes 6.13619
